<?xml version="1.0" standalone="no"?>
<!DOCTYPE svg PUBLIC "-//W3C//DTD SVG 20010904//EN"
 "http://www.w3.org/TR/2001/REC-SVG-20010904/DTD/svg10.dtd">
<svg version="1.0" xmlns="http://www.w3.org/2000/svg"
 width="376.000000pt" height="376.000000pt" viewBox="0 0 376.000000 376.000000"
 preserveAspectRatio="xMidYMid meet">

<g transform="translate(0.000000,376.000000) scale(0.100000,-0.100000)"
fill="#000000" stroke="none">
<path d="M1810 3521 c-66 -27 -589 -232 -780 -306 -213 -81 -280 -111 -308
-137 -27 -26 -42 -59 -179 -383 -103 -245 -185 -436 -225 -525 -92 -204 -112
-305 -76 -380 17 -35 313 -779 383 -965 55 -143 61 -148 365 -282 140 -61 383
-169 539 -238 157 -70 301 -130 322 -132 47 -7 50 -6 449 152 184 73 412 163
505 200 188 74 245 103 267 137 16 25 381 869 443 1027 30 77 36 103 33 145
-6 74 -418 1117 -463 1174 -30 38 -40 43 -440 221 -137 62 -259 116 -270 121
-414 191 -475 209 -565 171z m935 -1059 l0 -124 -268 1 c-252 2 -337 -3 -337
-18 0 -3 37 -33 81 -66 160 -118 286 -287 333 -445 23 -78 31 -213 16 -285
-27 -136 -116 -267 -252 -371 -208 -161 -524 -191 -764 -73 -192 94 -360 290
-433 506 -46 136 -50 349 -9 483 69 223 240 409 433 470 140 44 201 48 715 47
l485 -2 0 -123z"/>
<path d="M1846 2329 c-92 -10 -159 -30 -240 -72 -157 -83 -221 -214 -219 -447
2 -231 91 -439 245 -574 67 -58 119 -84 198 -97 189 -30 317 60 407 287 26 65
27 78 28 234 0 182 -7 217 -71 364 -62 140 -204 318 -251 315 -10 -1 -53 -5
-97 -10z"/>
</g>
</svg>
